<svg xmlns="http://www.w3.org/2000/svg" viewBox="0 0 120 120" role="img" aria-label="HomeCheff">
  <defs>
    <linearGradient id="hc" x1="0%" y1="0%" x2="100%" y2="100%">
      <stop offset="0%" stop-color="#006D52"/>
      <stop offset="100%" stop-color="#0067B1"/>
    </linearGradient>
  </defs>
  <circle cx="60" cy="60" r="56" fill="url(#hc)"/>
  <path fill="#fff" d="M36 78V42h14c10 0 16 6 16 14 0 5-2 9-6 11l10 11H56L47 68h-3v10H36zm10-18h4c4 0 6-2 6-5s-2-5-6-5h-4v10z"/>
  <path fill="#fff" opacity=".9" d="M72 78V42h22v8H82v8h10v8H82v12h12v8H72z"/>
</svg>
